<?xml version="1.0" encoding="utf-8" standalone="yes"?>
<!DOCTYPE svg PUBLIC "-//W3C//DTD SVG 1.1//EN" "http://www.w3.org/Graphics/SVG/1.1/DTD/svg11.dtd">
<svg width="710" height="463" viewBox="0 0 710 463" style="fill:none;stroke:none;fill-rule:evenodd;clip-rule:evenodd;stroke-linecap:round;stroke-linejoin:round;stroke-miterlimit:1.5;" version="1.1" xmlns="http://www.w3.org/2000/svg" xmlns:xlink="http://www.w3.org/1999/xlink"><style class="text-font-style fontImports" data-font-family="Roboto">@import url('https://fonts.googleapis.com/css2?family=Roboto:wght@400;700&amp;display=block');</style><rect id="" x="0" y="0" width="710" height="462" style="fill: none;"></rect><g id="items" style="isolation: isolate"><g id="blend" style="mix-blend-mode: normal"><g id="g-root-tf_1qd7cbj6pkbuw-fill" data-item-order="-325680" transform="translate(-9, -9)"></g><g id="g-root-0.cu_sy_1lsdycf6p3h8i-fill" data-item-order="-35721" transform="translate(295, 207)"></g><g id="g-root-0.cu_1_sy_zlwwtb6p3ggb-fill" data-item-order="-35719" transform="translate(295.000244140625, 115)"></g><g id="g-root-3.cu_sy_magefz6p3i18-fill" data-item-order="-35715" transform="translate(379, 291)"></g><g id="g-root-3.cu_1_sy_hv9den6p3fnp-fill" data-item-order="-35713" transform="translate(323, 303)"></g><g id="g-root-3.cu_2_sy_4jsv1b6p3h8m-fill" data-item-order="-35711" transform="translate(295, 291)"></g><g id="g-root-2.cu_sy_1qa2vq76p3fgn-fill" data-item-order="-35707" transform="translate(379, 219)"></g><g id="g-root-2.cu_1_sy_1lu9dlr6p3g8w-fill" data-item-order="-35705" transform="translate(323, 231)"></g><g id="g-root-2.cu_2_sy_18isv8f6p3htt-fill" data-item-order="-35703" transform="translate(295, 219)"></g><g id="g-root-1.cu_sy_znsc2n6p3fgq-fill" data-item-order="-35699" transform="translate(379.000244140625, 147)"></g><g id="g-root-1.cu_1_sy_mcbtpb6p3h1n-fill" data-item-order="-35697" transform="translate(323.000244140625, 159)"></g><g id="g-root-1.cu_2_sy_hwibkv6p3htw-fill" data-item-order="-35695" transform="translate(295.000244140625, 147)"></g><g id="g-root-1.cu_3_sy_4loaan6p3g91-fill" data-item-order="-35693" transform="translate(295.0000305175781, 87)"></g><g id="g-root-tx_rollingw_me78yn6p3g21-fill" data-item-order="0" transform="translate(495, 201)"><g id="tx_rollingw_me78yn6p3g21-fill" stroke="none" fill="#f4f4f4"><g><text style="font: bold 20px Roboto, sans-serif; white-space: pre;" font-weight="bold" font-size="20px" font-family="Roboto, sans-serif"><tspan x="12" y="34" dominant-baseline="ideographic">Rolling Window </tspan><tspan x="12" y="58" dominant-baseline="ideographic">Statistics</tspan></text></g></g></g><g id="g-root-spli_1ut0ufz6p4vep-fill" data-item-order="0" transform="translate(435, 213)"></g><g id="g-root-tx_features_92qqlb6p3hmy-fill" data-item-order="0" transform="translate(39, 189)"><g id="tx_features_92qqlb6p3hmy-fill" stroke="none" fill="#f4f4f4"><g><text style="font: 15px Roboto, sans-serif; white-space: pre;" font-size="15px" font-family="Roboto, sans-serif"><tspan x="19.52" y="27.6" dominant-baseline="ideographic">Features based on time </tspan><tspan x="119.29" y="45.6" dominant-baseline="ideographic">intervals</tspan></text></g></g></g><g id="g-root-tx_statisti_zp1a8v6p3hmw-fill" data-item-order="0" transform="translate(495, 261)"><g id="tx_statisti_zp1a8v6p3hmw-fill" stroke="none" fill="#f4f4f4"><g><text style="font: 15px Roboto, sans-serif; white-space: pre;" font-size="15px" font-family="Roboto, sans-serif"><tspan x="12" y="27.6" dominant-baseline="ideographic">Statistical measures over </tspan><tspan x="12" y="45.6" dominant-baseline="ideographic">rolling windows</tspan></text></g></g></g><g id="g-root-tx_features_1qbbtwf6p3hmu-fill" data-item-order="0" transform="translate(15, 333)"><g id="tx_features_1qbbtwf6p3hmu-fill" stroke="none" fill="#f4f4f4"><g><text style="font: 15px Roboto, sans-serif; white-space: pre;" font-size="15px" font-family="Roboto, sans-serif"><tspan x="16.49" y="27.6" dominant-baseline="ideographic">Features based on previous </tspan><tspan x="129.84" y="45.6" dominant-baseline="ideographic">time steps</tspan></text></g></g></g><g id="g-root-hour_1qd795r6p3gn8-fill" data-item-order="0" transform="translate(219, 285)"></g><g id="g-root-1_18nsr336p7ocn-fill" data-item-order="0" transform="translate(219, 141)"></g><g id="g-root-tx_temporal_1ut0ra76p3fuz-fill" data-item-order="0" transform="translate(27, 153)"><g id="tx_temporal_1ut0ra76p3fuz-fill" stroke="none" fill="#f4f4f4"><g><text style="font: bold 20px Roboto, sans-serif; white-space: pre;" font-weight="bold" font-size="20px" font-family="Roboto, sans-serif"><tspan x="19.41" y="34" dominant-baseline="ideographic">Temporal Features</tspan></text></g></g></g><g id="g-root-tx_componen_1d0hvrz6pkb9q-fill" data-item-order="0" transform="translate(189, 39)"><g id="tx_componen_1d0hvrz6pkb9q-fill" stroke="none" fill="#f4f4f4"><g><text style="font: 20px Roboto, sans-serif; white-space: pre;" font-size="20px" font-family="Roboto, sans-serif"><tspan x="12.41" y="34" dominant-baseline="ideographic">Components of Feature Engineering</tspan></text></g></g></g><g id="g-root-tx_lagfeatu_1d0hsm76p3g1z-fill" data-item-order="0" transform="translate(87, 297)"><g id="tx_lagfeatu_1d0hsm76p3g1z-fill" stroke="none" fill="#f4f4f4"><g><text style="font: bold 20px Roboto, sans-serif; white-space: pre;" font-weight="bold" font-size="20px" font-family="Roboto, sans-serif"><tspan x="11.61" y="34" dominant-baseline="ideographic">Lag Features</tspan></text></g></g></g><g id="g-root-tf_1qd7cbj6pkbuw-stroke" data-item-order="-325680" transform="translate(-9, -9)"></g><g id="g-root-0.cu_sy_1lsdycf6p3h8i-stroke" data-item-order="-35721" transform="translate(295, 207)"><g id="0.cu_sy_1lsdycf6p3h8i-stroke" fill="none" stroke-linecap="round" stroke-linejoin="round" stroke-miterlimit="4" stroke="#4f91fc" stroke-width="2"><g><path d="M 54.78 190.78L 60.38 193.98L 61.98 189.18L 66 193.18L 70.02 189.18L 71.62 193.98L 77.22 190.78L 122 130L 94 142L 38 142L 10 130L 54.78 190.78ZM 94 82L 38 82L 10 94L 38 106L 94 106L 122 94L 94 82ZM 66 98.8C 54.95 98.8 46 96.65 46 94C 46 91.35 54.95 89.2 66 89.2C 77.05 89.2 86 91.35 86 94C 86 96.65 77.05 98.8 66 98.8ZM 94 10L 38 10L 10 22L 38 34L 94 34L 122 22L 94 10ZM 66 26.8C 54.95 26.8 46 24.65 46 22C 46 19.35 54.95 17.2 66 17.2C 77.05 17.2 86 19.35 86 22C 86 24.65 77.05 26.8 66 26.8Z"></path></g></g></g><g id="g-root-0.cu_1_sy_zlwwtb6p3ggb-stroke" data-item-order="-35719" transform="translate(295.000244140625, 115)"><g id="0.cu_1_sy_zlwwtb6p3ggb-stroke" fill="none" stroke-linecap="round" stroke-linejoin="round" stroke-miterlimit="4" stroke="#d3d3d3" stroke-width="2"><g><path d="M 54.779785 282.780176L 60.379785 285.980176L 61.979785 281.180176L 65.999785 285.180176L 70.019785 281.180176L 71.619785 285.980176L 77.219785 282.780176L 65.999785 298.000176L 54.779785 282.780176ZM 65.999756 190.800195C 77.045456 190.800195 85.999756 188.651195 85.999756 186.000195C 85.999756 183.349195 77.045456 181.200195 65.999756 181.200195C 54.954056 181.200195 45.999756 183.349195 45.999756 186.000195C 45.999756 188.651195 54.954056 190.800195 65.999756 190.800195ZM 65.999756 118.800195C 77.045456 118.800195 85.999756 116.651195 85.999756 114.000195C 85.999756 111.349195 77.045456 109.200195 65.999756 109.200195C 54.954056 109.200195 45.999756 111.349195 45.999756 114.000195C 45.999756 116.651195 54.954056 118.800195 65.999756 118.800195ZM 10 34L 38 46L 94 46L 122 34L 122 42L 94 54L 38 54L 10 42L 10 34ZM 10 26L 38 38L 94 38L 122 26L 122 34L 94 46L 38 46L 10 34L 10 26ZM 10 26L 38 38L 94 38L 122 26L 122 10L 94 22L 38 22L 10 10L 10 26Z"></path></g></g></g><g id="g-root-3.cu_sy_magefz6p3i18-stroke" data-item-order="-35715" transform="translate(379, 291)"><g id="3.cu_sy_magefz6p3i18-stroke" fill="none" stroke-linecap="round" stroke-linejoin="round" stroke-miterlimit="4" stroke="#a6da37" stroke-width="2"><g><path d="M 10 58L 38 46L 38 10L 10 22L 10 58Z"></path></g></g></g><g id="g-root-3.cu_1_sy_hv9den6p3fnp-stroke" data-item-order="-35713" transform="translate(323, 303)"><g id="3.cu_1_sy_hv9den6p3fnp-stroke" fill="none" stroke-linecap="round" stroke-linejoin="round" stroke-miterlimit="4" stroke="#a6da37" stroke-width="2"><g><path d="M 66 10L 10 10L 10 46L 66 46L 66 10Z"></path></g></g></g><g id="g-root-3.cu_2_sy_4jsv1b6p3h8m-stroke" data-item-order="-35711" transform="translate(295, 291)"><g id="3.cu_2_sy_4jsv1b6p3h8m-stroke" fill="none" stroke-linecap="round" stroke-linejoin="round" stroke-miterlimit="4" stroke="#a6da37" stroke-width="2"><g><path d="M 38 22L 10 10L 10 46L 38 58L 38 22Z"></path></g></g></g><g id="g-root-2.cu_sy_1qa2vq76p3fgn-stroke" data-item-order="-35707" transform="translate(379, 219)"><g id="2.cu_sy_1qa2vq76p3fgn-stroke" fill="none" stroke-linecap="round" stroke-linejoin="round" stroke-miterlimit="4" stroke="#43dd93" stroke-width="2"><g><path d="M 10 58L 38 46L 38 10L 10 22L 10 58Z"></path></g></g></g><g id="g-root-2.cu_1_sy_1lu9dlr6p3g8w-stroke" data-item-order="-35705" transform="translate(323, 231)"><g id="2.cu_1_sy_1lu9dlr6p3g8w-stroke" fill="none" stroke-linecap="round" stroke-linejoin="round" stroke-miterlimit="4" stroke="#43dd93" stroke-width="2"><g><path d="M 66 10L 10 10L 10 46L 66 46L 66 10Z"></path></g></g></g><g id="g-root-2.cu_2_sy_18isv8f6p3htt-stroke" data-item-order="-35703" transform="translate(295, 219)"><g id="2.cu_2_sy_18isv8f6p3htt-stroke" fill="none" stroke-linecap="round" stroke-linejoin="round" stroke-miterlimit="4" stroke="#43dd93" stroke-width="2"><g><path d="M 38 22L 10 10L 10 46L 38 58L 38 22Z"></path></g></g></g><g id="g-root-1.cu_sy_znsc2n6p3fgq-stroke" data-item-order="-35699" transform="translate(379.000244140625, 147)"><g id="1.cu_sy_znsc2n6p3fgq-stroke" fill="none" stroke-linecap="round" stroke-linejoin="round" stroke-miterlimit="4" stroke="#1ac3fb" stroke-width="2"><g><path d="M 10 58L 38 46L 38 10L 10 22L 10 58Z"></path></g></g></g><g id="g-root-1.cu_1_sy_mcbtpb6p3h1n-stroke" data-item-order="-35697" transform="translate(323.000244140625, 159)"><g id="1.cu_1_sy_mcbtpb6p3h1n-stroke" fill="none" stroke-linecap="round" stroke-linejoin="round" stroke-miterlimit="4" stroke="#1ac3fb" stroke-width="2"><g><path d="M 66 10L 10 10L 10 46L 66 46L 66 10Z"></path></g></g></g><g id="g-root-1.cu_2_sy_hwibkv6p3htw-stroke" data-item-order="-35695" transform="translate(295.000244140625, 147)"><g id="1.cu_2_sy_hwibkv6p3htw-stroke" fill="none" stroke-linecap="round" stroke-linejoin="round" stroke-miterlimit="4" stroke="#1ac3fb" stroke-width="2"><g><path d="M 38 22L 10 10L 10 46L 38 58L 38 22Z"></path></g></g></g><g id="g-root-1.cu_3_sy_4loaan6p3g91-stroke" data-item-order="-35693" transform="translate(295.0000305175781, 87)"><g id="1.cu_3_sy_4loaan6p3g91-stroke" fill="none" stroke-linecap="round" stroke-linejoin="round" stroke-miterlimit="4" stroke="#1ac3fb" stroke-width="2"><g><path d="M 38.000169 50L 94.000169 50L 122.000169 38C 122.000169 38 122.530169 10 66.000169 10C 9.470169 10 10.000169 38 10.000169 38L 38.000169 50Z"></path></g></g></g><g id="g-root-tx_rollingw_me78yn6p3g21-stroke" data-item-order="0" transform="translate(495, 201)"></g><g id="g-root-spli_1ut0ufz6p4vep-stroke" data-item-order="0" transform="translate(435, 213)"><g id="spli_1ut0ufz6p4vep-stroke" fill="none" stroke-linecap="round" stroke-linejoin="round" stroke-miterlimit="4" stroke="#43dd93" stroke-width="2"><g><path d="M 56.486 56.5L 11.5 56.5L 11.5 11.5M 56.486 32C 50.685398 33.246002 48.868 22.999939 43.789398 22.499939C 38.7108 21.999939 32.3624 34 27.283739 34C 22.205101 34 18.396099 22.499939 12.0478 23.999939C 11.867085 24.042641 11.694606 24.098301 11.529816 24.166161M 11.5 52.5C 17.75 51.310398 27 41 32 42.586201C 37 44.172401 43 52.103401 47 51.310398C 51 50.5172 56 41 56 41M 56.486 18C 55.2164 23 50.1376 40 42.5196 39C 34.901802 38 33.632 15 27.283739 15C 18.091801 15 23.31678 36.792801 11.531188 36.867203"></path></g></g></g><g id="g-root-tx_features_92qqlb6p3hmy-stroke" data-item-order="0" transform="translate(39, 189)"></g><g id="g-root-tx_statisti_zp1a8v6p3hmw-stroke" data-item-order="0" transform="translate(495, 261)"></g><g id="g-root-tx_features_1qbbtwf6p3hmu-stroke" data-item-order="0" transform="translate(15, 333)"></g><g id="g-root-hour_1qd795r6p3gn8-stroke" data-item-order="0" transform="translate(219, 285)"><g id="hour_1qd795r6p3gn8-stroke" fill="none" stroke-linecap="round" stroke-linejoin="round" stroke-miterlimit="4" stroke="#a6da37" stroke-width="2"><g><path d="M 47 21C 47 28.179703 41.179703 34 34 34C 26.820299 34 21 28.179703 21 21L 21 11L 47 11ZM 47 47C 47 39.820297 41.179703 34 34 34C 26.820299 34 21 39.820297 21 47L 21 57L 47 57ZM 17 11.002L 51 11.002M 17 57.001999L 51 57.001999M 21 49.001999L 28 49.001999L 34 43.001999L 40 49.001999L 47 49.001999M 23.792 29.002001L 44.208 29.002001"></path></g></g></g><g id="g-root-1_18nsr336p7ocn-stroke" data-item-order="0" transform="translate(219, 141)"><g id="1_18nsr336p7ocn-stroke" fill="none" stroke-linecap="round" stroke-linejoin="round" stroke-miterlimit="4" stroke="#1ac3fb" stroke-width="2"><g><path d="M 35.049999 11C 22.348 11 11.05 21.304001 11.05 34C 11.05 46.695999 22.348 57 35.049999 57ZM 15.05 34.001999L 19.049999 34.001999M 53.049999 34.001999L 49.049999 34.001999M 20.616001 47.442001L 23.445999 44.613998M 47.486 20.571999L 44.658001 23.4M 47.486 47.442001L 44.658001 44.613998M 20.616001 20.571999L 23.445999 23.4"></path></g></g></g><g id="g-root-tx_temporal_1ut0ra76p3fuz-stroke" data-item-order="0" transform="translate(27, 153)"></g><g id="g-root-tx_componen_1d0hvrz6pkb9q-stroke" data-item-order="0" transform="translate(189, 39)"></g><g id="g-root-tx_lagfeatu_1d0hsm76p3g1z-stroke" data-item-order="0" transform="translate(87, 297)"></g></g></g></svg>