<?xml version="1.0" encoding="utf-8" standalone="yes"?>
<!DOCTYPE svg PUBLIC "-//W3C//DTD SVG 1.1//EN" "http://www.w3.org/Graphics/SVG/1.1/DTD/svg11.dtd">
<svg width="770" height="446" viewBox="0 0 770 446" style="fill:none;stroke:none;fill-rule:evenodd;clip-rule:evenodd;stroke-linecap:round;stroke-linejoin:round;stroke-miterlimit:1.5;" version="1.1" xmlns="http://www.w3.org/2000/svg" xmlns:xlink="http://www.w3.org/1999/xlink"><style class="text-font-style fontImports" data-font-family="Roboto">@import url('https://fonts.googleapis.com/css2?family=Roboto:wght@400;700&amp;display=block');</style><rect id="" x="0" y="0" width="770" height="446" style="fill: none;"></rect><g id="items" style="isolation: isolate"><g id="blend" style="mix-blend-mode: normal"><g id="g-root-tf_qvaubz7jg9ho-fill" data-item-order="-340992" transform="translate(-9, -9)"></g><g id="g-root-3.g-3_fr_1upb1u77jewi4-fill" data-item-order="-259190" transform="translate(352.88104248046875, 293.4849853515625)"></g><g id="g-root-2.g-2_fr_1430i6n7jewi7-fill" data-item-order="-259182" transform="translate(297.0000305175781, 218.6710205078125)"></g><g id="g-root-1.g-1_fr_hwjgnj7jewhu-fill" data-item-order="-259174" transform="translate(291.95703125, 135)"></g><g id="g-root-tx_dataproc_1d0ixov7jeupx-fill" data-item-order="0" transform="translate(123, 39)"><g id="tx_dataproc_1d0ixov7jeupx-fill" stroke="none" fill="#f4f4f4"><g><text style="font: bold 25px Roboto, sans-serif; white-space: pre;" font-weight="bold" font-size="25px" font-family="Roboto, sans-serif"><tspan x="14.54" y="42.6" dominant-baseline="ideographic">Data Processing for Taxi Demand Prediction</tspan></text></g></g></g><g id="g-root-tx_datafetc_dkgt1r7jeuiw-fill" data-item-order="0" transform="translate(519, 147)"><g id="tx_datafetc_dkgt1r7jeuiw-fill" stroke="none" fill="#1ac3fb"><g><text style="font: bold 20px Roboto, sans-serif; white-space: pre;" font-weight="bold" font-size="20px" font-family="Roboto, sans-serif"><tspan x="12" y="34" dominant-baseline="ideographic">Data Fetching</tspan></text></g></g></g><g id="g-root-tx_automate_1hcllan7jga2x-fill" data-item-order="0" transform="translate(519, 183)"><g id="tx_automate_1hcllan7jga2x-fill" stroke="none" fill="#f4f4f4"><g><text style="font: 15px Roboto, sans-serif; white-space: pre;" font-size="15px" font-family="Roboto, sans-serif"><tspan x="12" y="27.6" dominant-baseline="ideographic">Automated hourly data </tspan><tspan x="12" y="45.6" dominant-baseline="ideographic">retrieval</tspan></text></g></g></g><g id="g-root-tx_datavali_74vf37jex3i-fill" data-item-order="0" transform="translate(93, 225)"><g id="tx_datavali_74vf37jex3i-fill" stroke="none" fill="#43dd93"><g><text style="font: bold 20px Roboto, sans-serif; white-space: pre;" font-weight="bold" font-size="20px" font-family="Roboto, sans-serif"><tspan x="63.43" y="34" dominant-baseline="ideographic">Data Validation</tspan></text></g></g></g><g id="g-root-tx_ensuring_18lydqn7jewwf-fill" data-item-order="0" transform="translate(93, 260.9998779296875)"><g id="tx_ensuring_18lydqn7jewwf-fill" stroke="none" fill="#f4f4f4"><g><text style="font: 15px Roboto, sans-serif; white-space: pre;" font-size="15px" font-family="Roboto, sans-serif"><tspan x="31.74" y="27.6" dominant-baseline="ideographic">Ensuring data quality and </tspan><tspan x="146.04" y="45.6" dominant-baseline="ideographic">integrity</tspan></text></g></g></g><g id="g-root-tx_qualityc_qqb1n37jga2y-fill" data-item-order="0" transform="translate(459, 296.9998779296875)"><g id="tx_qualityc_qqb1n37jga2y-fill" stroke="none" fill="#a6da37"><g><text style="font: bold 20px Roboto, sans-serif; white-space: pre;" font-weight="bold" font-size="20px" font-family="Roboto, sans-serif"><tspan x="12" y="34" dominant-baseline="ideographic">Quality Checks</tspan></text></g></g></g><g id="g-root-tx_furtherv_40hzj7jga2z-fill" data-item-order="0" transform="translate(459, 332.9998779296875)"><g id="tx_furtherv_40hzj7jga2z-fill" stroke="none" fill="#f4f4f4"><g><text style="font: 15px Roboto, sans-serif; white-space: pre;" font-size="15px" font-family="Roboto, sans-serif"><tspan x="12" y="27.6" dominant-baseline="ideographic">Further validation of data </tspan><tspan x="12" y="45.6" dominant-baseline="ideographic">quality</tspan></text></g></g></g><g id="g-root-tf_qvaubz7jg9ho-stroke" data-item-order="-340992" transform="translate(-9, -9)"></g><g id="g-root-3.g-3_fr_1upb1u77jewi4-stroke" data-item-order="-259190" transform="translate(352.88104248046875, 293.4849853515625)"><g id="3.g-3_fr_1upb1u77jewi4-stroke" fill="none" stroke-linecap="round" stroke-linejoin="round" stroke-miterlimit="4" stroke="#a6da37" stroke-width="2"><g><path d="M 77.502407 17.464941L 44.057407 99.542641L 10.604307 17.432741C 13.605607 22.267041 27.443607 25.920941 44.065407 25.920941C 60.687207 25.920941 74.460807 22.283141 77.502407 17.464941Z"></path></g></g><g id="3.g-3_fr_1upb1u77jewi4-stroke" fill="none" stroke-linecap="round" stroke-linejoin="round" stroke-miterlimit="4" stroke="#a6da37" stroke-width="2"><g><path d="M 78.1268 15.4627C 78.1268 15.6682 78.1066 15.8736 78.0663 16.0791L 77.5023 17.4609C 74.4608 22.2831 60.6469 25.9208 44.0654 25.9208C 27.4839 25.9208 13.6056 22.2669 10.6043 17.4327L 10.0685 16.1153C 10.0201 15.8978 10 15.6803 10 15.4627C 10 13.4605 11.833 11.5872 15.0155 10C 22.1783 12.115 32.5438 13.4444 44.0654 13.4444C 55.587 13.4444 65.9485 12.115 73.1112 10C 76.2938 11.5872 78.1268 13.4605 78.1268 15.4627ZM 104.119141 25.520874L 74.119141 25.520874"></path></g></g></g><g id="g-root-2.g-2_fr_1430i6n7jewi7-stroke" data-item-order="-259182" transform="translate(297.0000305175781, 218.6710205078125)"><g id="2.g-2_fr_1430i6n7jewi7-stroke" fill="none" stroke-linecap="round" stroke-linejoin="round" stroke-miterlimit="4" stroke="#43dd93" stroke-width="2"><g><path d="M 164.145827 16.784227L 139.003627 78.485427C 139.003627 78.485427 139.003627 78.493527 139.003627 78.497527L 138.641027 79.391827C 138.641027 79.391827 138.633027 79.403927 138.633027 79.407927C 137.440527 81.470627 133.996127 83.331727 128.996727 84.814327C 121.833927 86.929227 111.472527 88.258727 99.950927 88.258727C 88.429227 88.258727 78.063827 86.929227 70.901027 84.814327C 65.885527 83.327727 62.441127 81.462527 61.256727 79.391827C 61.248627 79.383827 61.244627 79.371727 61.240527 79.359627L 60.902127 78.533827L 60.898127 78.525727L 35.719727 16.719727C 38.781427 22.935827 66.368927 27.802227 99.950927 27.802227C 133.532827 27.802227 160.931027 22.968027 164.149827 16.784227L 164.145827 16.784227Z"></path></g></g><g id="2.g-2_fr_1430i6n7jewi7-stroke" fill="none" stroke-linecap="round" stroke-linejoin="round" stroke-miterlimit="4" stroke="#43dd93" stroke-width="2"><g><path d="M 164.4598 15.5675C 164.4598 15.7971 164.4276 16.0307 164.3591 16.2563C 164.3591 16.2604 164.3591 16.2644 164.3591 16.2644L 164.1536 16.768C 164.1536 16.768 164.1536 16.776 164.1496 16.7841C 160.9308 22.9679 133.4158 27.8022 99.9507 27.8022C 66.4855 27.8022 38.7812 22.9357 35.7195 16.7196C 35.7195 16.7196 35.7155 16.7116 35.7155 16.7075L 35.5584 16.3248C 35.4778 16.0751 35.4375 15.8213 35.4375 15.5675C 35.4375 13.5612 37.9795 11.6678 42.4834 10C 55.0324 13.2148 76.0896 15.3257 99.9507 15.3257C 123.8118 15.3257 144.869 13.2148 157.4179 10C 161.9218 11.6678 164.4638 13.5612 164.4638 15.5675L 164.4598 15.5675ZM 40 28.329346L 10 28.329346"></path></g></g></g><g id="g-root-1.g-1_fr_hwjgnj7jewhu-stroke" data-item-order="-259174" transform="translate(291.95703125, 135)"><g id="1.g-1_fr_hwjgnj7jewhu-stroke" fill="none" stroke-linecap="round" stroke-linejoin="round" stroke-miterlimit="4" stroke="#1ac3fb" stroke-width="2"><g><path d="M 199.756258 25.422852L 174.561758 87.253052C 174.561758 87.253052 174.561758 87.269152 174.553758 87.277152L 174.251558 88.022452C 173.030958 90.105252 168.849258 92.034852 162.455958 93.670452C 149.907058 96.885252 128.849858 98.996252 104.988758 98.996252C 81.127658 98.996252 60.070458 96.885252 47.521558 93.670452C 41.083858 92.022852 36.886158 90.081052 35.701758 87.982152L 35.431858 87.317452C 35.427858 87.313452 35.427858 87.309452 35.427858 87.305352L 10.301758 25.632352C 14.161058 32.847452 55.091158 38.539852 104.988758 38.539852C 154.886358 38.539852 196.614058 32.742752 199.756258 25.422852Z"></path></g></g><g id="1.g-1_fr_hwjgnj7jewhu-stroke" fill="none" stroke-linecap="round" stroke-linejoin="round" stroke-miterlimit="4" stroke="#1ac3fb" stroke-width="2"><g><path d="M 199.7567 25.4229C 199.8856 25.1288 199.9501 24.8267 199.9501 24.5245L 199.9501 24.0274C 199.9501 23.83 199.9219 23.6326 199.8655 23.4352L 199.6479 22.9075C 195.7886 15.6923 155.354 10 104.9609 10C 54.5678 10 13.3357 15.7971 10.1934 23.1169C 10.0645 23.411 10 23.7132 10 24.0153L 10 24.5124C 10 24.7098 10.0282 24.9072 10.0846 25.1046L 10.3021 25.6324C 14.1615 32.8475 54.596 38.5398 104.9891 38.5398C 155.3822 38.5398 196.6144 32.7428 199.7567 25.4229ZM 225.042969 34L 196.042969 34"></path></g></g></g><g id="g-root-tx_dataproc_1d0ixov7jeupx-stroke" data-item-order="0" transform="translate(123, 39)"></g><g id="g-root-tx_datafetc_dkgt1r7jeuiw-stroke" data-item-order="0" transform="translate(519, 147)"></g><g id="g-root-tx_automate_1hcllan7jga2x-stroke" data-item-order="0" transform="translate(519, 183)"></g><g id="g-root-tx_datavali_74vf37jex3i-stroke" data-item-order="0" transform="translate(93, 225)"></g><g id="g-root-tx_ensuring_18lydqn7jewwf-stroke" data-item-order="0" transform="translate(93, 260.9998779296875)"></g><g id="g-root-tx_qualityc_qqb1n37jga2y-stroke" data-item-order="0" transform="translate(459, 296.9998779296875)"></g><g id="g-root-tx_furtherv_40hzj7jga2z-stroke" data-item-order="0" transform="translate(459, 332.9998779296875)"></g></g></g></svg>