<?xml version="1.0" encoding="utf-8" standalone="yes"?>
<!DOCTYPE svg PUBLIC "-//W3C//DTD SVG 1.1//EN" "http://www.w3.org/Graphics/SVG/1.1/DTD/svg11.dtd">
<svg width="614" height="470" viewBox="0 0 614 470" style="fill:none;stroke:none;fill-rule:evenodd;clip-rule:evenodd;stroke-linecap:round;stroke-linejoin:round;stroke-miterlimit:1.5;" version="1.1" xmlns="http://www.w3.org/2000/svg" xmlns:xlink="http://www.w3.org/1999/xlink"><style class="text-font-style fontImports" data-font-family="Roboto">@import url('https://fonts.googleapis.com/css2?family=Roboto:wght@400;700&amp;display=block');</style><rect id="" x="0" y="0" width="614" height="470" style="fill: none;"></rect><g id="items" style="isolation: isolate"><g id="blend" style="mix-blend-mode: normal"><g id="g-root-tf_qqwdnz8nafwv-fill" data-item-order="-286416" transform="translate(-9, -9)"></g><g id="g-root-4.cu_sy_90apb8d3v9e-fill" data-item-order="-105977" transform="translate(122.95700073242188, 220)"></g><g id="g-root-3.Exclude_sy_1lzabe78d3thf-fill" data-item-order="-105974" transform="translate(244.055908203125, 257)"></g><g id="g-root-2.right-bucket_sy_18ntt0v8d3v2c-fill" data-item-order="-105970" transform="translate(339, 231)"></g><g id="g-root-1.left-bucket_sy_v306cv8d581x-fill" data-item-order="-105966" transform="translate(15, 183)"></g><g id="g-root-plus_1lvjk1b8d57ut-fill" data-item-order="0" transform="translate(27, 51)"></g><g id="g-root-tx_featurei_qsrsxb8n90qv-fill" data-item-order="0" transform="translate(87, 39)"><g id="tx_featurei_qsrsxb8n90qv-fill" stroke="none" fill="#f4f4f4"><g><text style="font: 20px Roboto, sans-serif; white-space: pre;" font-size="20px" font-family="Roboto, sans-serif"><tspan x="12" y="34" dominant-baseline="ideographic">Feature </tspan><tspan x="12" y="58" dominant-baseline="ideographic">importance </tspan><tspan x="12" y="82" dominant-baseline="ideographic">insights</tspan></text></g></g></g><g id="g-root-map_qtea0f8mz8qy-fill" data-item-order="0" transform="translate(351, 99)"></g><g id="g-root-tx_featurei_1ly084v8n9153-fill" data-item-order="0" transform="translate(411, 87)"><g id="tx_featurei_1ly084v8n9153-fill" stroke="none" fill="#f4f4f4"><g><text style="font: 20px Roboto, sans-serif; white-space: pre;" font-size="20px" font-family="Roboto, sans-serif"><tspan x="12" y="34" dominant-baseline="ideographic">Feature </tspan><tspan x="12" y="58" dominant-baseline="ideographic">importance </tspan><tspan x="12" y="82" dominant-baseline="ideographic">insights</tspan></text></g></g></g><g id="g-root-car_m7d63z8d58um-fill" data-item-order="0" transform="translate(27, 123)"></g><g id="g-root-tx_dataseth_mb2vjj8n92ir-fill" data-item-order="0" transform="translate(87, 123)"><g id="tx_dataseth_mb2vjj8n92ir-fill" stroke="none" fill="#f4f4f4"><g><text style="font: 20px Roboto, sans-serif; white-space: pre;" font-size="20px" font-family="Roboto, sans-serif"><tspan x="12" y="34" dominant-baseline="ideographic">Dataset handling </tspan><tspan x="12" y="58" dominant-baseline="ideographic">efficiency</tspan></text></g></g></g><g id="g-root-ligh_dbqc6n8d826b-fill" data-item-order="0" transform="translate(351, 171)"></g><g id="g-root-tx_dataseth_18larlb8n90jv-fill" data-item-order="0" transform="translate(411, 171)"><g id="tx_dataseth_18larlb8n90jv-fill" stroke="none" fill="#f4f4f4"><g><text style="font: 20px Roboto, sans-serif; white-space: pre;" font-size="20px" font-family="Roboto, sans-serif"><tspan x="12" y="34" dominant-baseline="ideographic">Dataset handling </tspan><tspan x="12" y="58" dominant-baseline="ideographic">efficiency</tspan></text></g></g></g><g id="g-root-tx_xgboost_4pf4tr8n9157-fill" data-item-order="0" transform="translate(87, 291)"><g id="tx_xgboost_4pf4tr8n9157-fill" stroke="none" fill="#f4f4f4"><g><text style="font: 20px Roboto, sans-serif; white-space: pre;" font-size="20px" font-family="Roboto, sans-serif"><tspan x="12.97" y="34" dominant-baseline="ideographic">XGBoost</tspan></text></g></g></g><g id="g-root-tx_lightgbm_zisje78nah3j-fill" data-item-order="0" transform="translate(405, 339)"><g id="tx_lightgbm_zisje78nah3j-fill" stroke="none" fill="#f4f4f4"><g><text style="font: 20px Roboto, sans-serif; white-space: pre;" font-size="20px" font-family="Roboto, sans-serif"><tspan x="14.01" y="34" dominant-baseline="ideographic">LightGBM</tspan></text></g></g></g><g id="g-root-tx_comparin_1lr506n8nagw3-fill" data-item-order="0" transform="translate(105, 387)"><g id="tx_comparin_1lr506n8nagw3-fill" stroke="none" fill="#f4f4f4"><g><text style="font: 20px Roboto, sans-serif; white-space: pre;" font-size="20px" font-family="Roboto, sans-serif"><tspan x="14.61" y="34" dominant-baseline="ideographic">Comparing Model Efficiency and Insights</tspan></text></g></g></g><g id="g-root-tf_qqwdnz8nafwv-stroke" data-item-order="-286416" transform="translate(-9, -9)"></g><g id="g-root-4.cu_sy_90apb8d3v9e-stroke" data-item-order="-105977" transform="translate(122.95700073242188, 220)"><g id="4.cu_sy_90apb8d3v9e-stroke" fill="none" stroke-linecap="round" stroke-linejoin="round" stroke-miterlimit="4" stroke="#f4f4f4" stroke-width="2"><g><path d="M 340.042999 93C 343.356999 93 346.042999 90.314 346.042999 87C 346.042999 83.686 343.356999 81 340.042999 81C 336.728999 81 334.042999 83.686 334.042999 87C 334.042999 90.314 336.728999 93 340.042999 93ZM 16.021999 45C 19.346999 45 22.042999 42.314 22.042999 39C 22.042999 35.686 19.346999 33 16.021999 33C 12.695999 33 9.999999 35.686 9.999999 39C 9.999999 42.314 12.695999 45 16.021999 45ZM 340.042999 81L 340.042999 57.75M 16.042999 10L 16.042999 33M 195.561999 65.593L 334.144999 86.11M 162.040999 60.634L 22.027999 39.904"></path></g></g></g><g id="g-root-3.Exclude_sy_1lzabe78d3thf-stroke" data-item-order="-105974" transform="translate(244.055908203125, 257)"><g id="3.Exclude_sy_1lzabe78d3thf-stroke" fill="none" stroke-linecap="round" stroke-linejoin="round" stroke-miterlimit="4" stroke="#f4f4f4" stroke-width="2"><g><path d="M 56.944107 10C 49.471107 10 43.195107 15.122 41.436107 22.047L 10.134107 124.12C 9.542107 126.049 10.984107 128 13.002107 128L 100.886107 128C 102.903107 128 104.346107 126.049 103.754107 124.12L 72.454107 22.054C 70.696107 15.126 64.419107 10 56.944107 10ZM 56.944107 33C 60.810107 33 63.944107 29.866 63.944107 26C 63.944107 22.134 60.810107 19 56.944107 19C 53.078107 19 49.944107 22.134 49.944107 26C 49.944107 29.866 53.078107 33 56.944107 33Z"></path></g></g></g><g id="g-root-2.right-bucket_sy_18ntt0v8d3v2c-stroke" data-item-order="-105970" transform="translate(339, 231)"><g id="2.right-bucket_sy_18ntt0v8d3v2c-stroke" fill="none" stroke-linecap="round" stroke-linejoin="round" stroke-miterlimit="4" stroke="#43dd93" stroke-width="2"><g><path d="M 11.081 15.729C 10.338 14.904 10 13.826 10 12.716L 10 12.716C 10 11.216 11.216 10 12.716 10L 235.284 10C 236.784 10 238 11.216 238 12.716L 238 12.716C 238 13.826 237.662 14.904 236.919 15.729C 231.551 21.692 204.717 46 124 46C 43.283 46 16.449 21.692 11.081 15.729Z"></path></g></g></g><g id="g-root-1.left-bucket_sy_v306cv8d581x-stroke" data-item-order="-105966" transform="translate(15, 183)"><g id="1.left-bucket_sy_v306cv8d581x-stroke" fill="none" stroke-linecap="round" stroke-linejoin="round" stroke-miterlimit="4" stroke="#1ac3fb" stroke-width="2"><g><path d="M 11.0812 15.729C 10.3384 14.904 10 13.826 10 12.716L 10 12.716C 10 11.216 11.2158 10 12.7157 10L 235.284 10C 236.784 10 238 11.216 238 12.716L 238 12.716C 238 13.826 237.662 14.904 236.919 15.729C 231.551 21.692 204.717 46 124 46C 43.2826 46 16.4488 21.692 11.0812 15.729Z"></path></g></g></g><g id="g-root-plus_1lvjk1b8d57ut-stroke" data-item-order="0" transform="translate(27, 51)"><g id="plus_1lvjk1b8d57ut-stroke" fill="none" stroke-linecap="round" stroke-linejoin="round" stroke-miterlimit="4" stroke="#f4f4f4" stroke-width="2"><g><path d="M 34 11.148C 38.328384 11.141644 42.568836 12.369655 46.223999 14.688C 55.723999 20.709999 56.424 33.148003 48.854 42.242001C 44.534286 47.430214 39.779701 52.24033 34.641998 56.619999C 34.270515 56.931061 33.729485 56.931061 33.358002 56.619999C 28.220161 52.241199 23.465561 47.431736 19.146 42.243999C 11.578 33.148003 12.276 20.709999 21.776001 14.688C 25.431162 12.369655 29.671616 11.141644 34 11.148ZM 28 29.142L 36 29.142M 22 29.142C 22 34.664848 26.477154 39.141998 32 39.141998C 37.52285 39.141998 42 34.664848 42 29.142C 42 23.619152 37.52285 19.142 32 19.142C 26.477154 19.142 22 23.619152 22 29.142ZM 39.071999 36.211998L 44 41.141998M 32 25.147999L 32 33.148003"></path></g></g></g><g id="g-root-tx_featurei_qsrsxb8n90qv-stroke" data-item-order="0" transform="translate(87, 39)"></g><g id="g-root-map_qtea0f8mz8qy-stroke" data-item-order="0" transform="translate(351, 99)"><g id="map_qtea0f8mz8qy-stroke" fill="none" stroke-linecap="round" stroke-linejoin="round" stroke-miterlimit="4" stroke="#f4f4f4" stroke-width="2"><g><path d="M 44 21C 44 26.521999 34 35.285999 34 35.285999C 34 35.285999 24 26.521999 24 21C 24 15.477153 28.477154 11 34 11C 39.52285 11 44 15.477153 44 21ZM 48 19L 51 19C 52.104568 19 53 19.895432 53 21L 53 55C 53 56.104568 52.104568 57 51 57L 17 57C 15.895431 57 15 56.104568 15 55L 15 21C 15 19.895432 15.895431 19 17 19L 20 19"></path></g></g></g><g id="g-root-tx_featurei_1ly084v8n9153-stroke" data-item-order="0" transform="translate(411, 87)"></g><g id="g-root-car_m7d63z8d58um-stroke" data-item-order="0" transform="translate(27, 123)"><g id="car_m7d63z8d58um-stroke" fill="none" stroke-linecap="round" stroke-linejoin="round" stroke-miterlimit="4" stroke="#f4f4f4" stroke-width="2"><g><path d="M 46.667999 53.324001L 47.355999 53.324001C 48.816242 53.324001 50.000004 52.140244 50 50.68L 50 48.812C 50.000324 48.027431 49.651413 47.283432 49.048 46.781998L 46.034 44.27L 44.848 39.922001C 44.37867 38.196732 42.811966 36.99958 41.023998 37L 31.4 37C 29.848766 37.00396 28.442236 37.911957 27.799999 39.323997L 25.548 44.27L 20.958 46.818001C 20.119768 47.285591 19.600193 48.17017 19.599998 49.129997L 19.6 50.68C 19.598896 52.139919 20.782082 53.324001 22.242001 53.324001L 23.6 53.324001M 30.146 53.324001L 40.113998 53.324001M 23.563999 53.695999C 23.563999 55.520748 25.043251 57 26.868 57C 28.692749 57 30.171999 55.520748 30.171999 53.695999C 30.171999 51.87125 28.692749 50.391998 26.868 50.391998C 25.043251 50.391998 23.563999 51.87125 23.563999 53.695999M 40.087997 53.695999C 40.087997 55.520748 41.567253 57 43.391998 57C 45.216747 57 46.695999 55.520748 46.695999 53.695999C 46.695999 51.87125 45.216747 50.391998 43.391998 50.391998C 41.567253 50.391998 40.087997 51.87125 40.087997 53.695999M 25.548 44.27L 46.034 44.27M 35.790001 37L 35.790001 44.27M 43 20C 43.396935 20.000422 43.756046 20.235573 43.915119 20.599237C 44.074196 20.962902 44.003124 21.386229 43.734001 21.678001L 33.284 33L 35.239998 24L 28.440001 24C 28.050489 24.000259 27.696272 23.774323 27.532284 23.421015C 27.368294 23.067707 27.424376 22.651329 27.676001 22.354L 37.284 11L 35.284 20ZM 53 21L 48 25L 52 29L 47 33M 15 26L 19 31L 23 27L 27 32"></path></g></g></g><g id="g-root-tx_dataseth_mb2vjj8n92ir-stroke" data-item-order="0" transform="translate(87, 123)"></g><g id="g-root-ligh_dbqc6n8d826b-stroke" data-item-order="0" transform="translate(351, 171)"><g id="ligh_dbqc6n8d826b-stroke" fill="none" stroke-linecap="round" stroke-linejoin="round" stroke-miterlimit="4" stroke="#f4f4f4" stroke-width="2"><g><path d="M 36 53L 34.996002 57M 54 53L 54.995998 57M 57 51C 57 52.104568 56.104568 53 55 53L 35 53C 33.895432 53 33 52.104568 33 51C 33 49.895432 33.895432 49 35 49L 55 49C 56.104568 49 57 49.895432 57 51ZM 37 49L 37 45M 53 49L 53 45M 34 41L 56 41C 56 41 57 41 57 42L 57 44C 57 44 57 45 56 45L 34 45C 34 45 33 45 33 44L 33 42C 33 42 33 41 34 41M 26.934 55.938C 26.951132 56.213787 26.853388 56.484367 26.663963 56.685539C 26.474537 56.886707 26.210316 57.00053 25.934 57L 20.063999 57C 19.787683 57.00053 19.523462 56.886707 19.334038 56.685539C 19.144611 56.484367 19.046867 56.213787 19.063999 55.938L 19.880001 42.875999C 19.945587 41.820129 20.822098 40.997963 21.880001 41L 24.122 41C 25.179901 40.997963 26.056412 41.820129 26.122 42.875999ZM 23 22L 23 41M 31 19L 31 23C 31 24.104568 30.10457 25 29 25L 17 25C 15.895431 25 15 24.104568 15 23L 15 19M 27 15C 27 17.209139 28.790861 19 31 19C 33.209137 19 35 17.209139 35 15C 35 12.790861 33.209137 11 31 11C 28.790861 11 27 12.790861 27 15M 11 15C 11 17.209139 12.790861 19 15 19C 17.209139 19 19 17.209139 19 15C 19 12.790861 17.209139 11 15 11C 12.790861 11 11 12.790861 11 15"></path></g></g></g><g id="g-root-tx_dataseth_18larlb8n90jv-stroke" data-item-order="0" transform="translate(411, 171)"></g><g id="g-root-tx_xgboost_4pf4tr8n9157-stroke" data-item-order="0" transform="translate(87, 291)"></g><g id="g-root-tx_lightgbm_zisje78nah3j-stroke" data-item-order="0" transform="translate(405, 339)"></g><g id="g-root-tx_comparin_1lr506n8nagw3-stroke" data-item-order="0" transform="translate(105, 387)"></g></g></g></svg>