<?xml version="1.0" encoding="utf-8" standalone="yes"?>
<!DOCTYPE svg PUBLIC "-//W3C//DTD SVG 1.1//EN" "http://www.w3.org/Graphics/SVG/1.1/DTD/svg11.dtd">
<svg width="830" height="644" viewBox="0 0 830 644" style="fill:none;stroke:none;fill-rule:evenodd;clip-rule:evenodd;stroke-linecap:round;stroke-linejoin:round;stroke-miterlimit:1.5;" version="1.1" xmlns="http://www.w3.org/2000/svg" xmlns:xlink="http://www.w3.org/1999/xlink"><style class="text-font-style fontImports" data-font-family="Shantell Sans">@import url('https://fonts.googleapis.com/css2?family=Shantell+Sans:wght@300..800&amp;display=block');</style><rect id="" x="0" y="0" width="830" height="644" style="fill: #2c2c2c;"></rect><g id="items" style="isolation: isolate"><g id="blend" style="mix-blend-mode: normal"><g id="g-root-tf_18ntmv28n677n-fill" data-item-order="-531576" transform="translate(-9, -9)"><g id="tf_18ntmv28n677n-fill" stroke="none" fill="#2c2c2c"><g><path d="M 10 10L 838 10L 838 652L 10 652Z"></path></g></g></g><g id="g-root--1.g-0b_fr_zkoo3i8nafb9-fill" data-item-order="-435233" transform="translate(137.00100708007812, 75)"></g><g id="g-root--1.g-0a_fr_qp1num8nag3z-fill" data-item-order="-435230" transform="translate(201.00100708007812, 63)"><g id="-1.g-0a_fr_qp1num8nag3z-fill" stroke="none" fill="#6b6b6b"><g><path d="M 16 46C 16 26.1178 32.1177 10.00002 52 10.000019L 376 10C 395.882 9.999999 412 26.1177 412 46L 412 334L 400 334L 400 46C 400 32.7452 389.255 22 376 22L 52 22C 38.7452 22 28 32.7452 28 46L 28 334L 16 334L 16 46ZM 394 340L 418 340L 418 338C 418 335.791 416.209 334 414 334L 398 334C 395.791 334 394 335.791 394 338L 394 340ZM 10 340L 34 340L 34 338C 34 335.791 32.2091 334 30 334L 14 334C 11.7909 334 10 335.791 10 338L 10 340Z"></path></g></g></g><g id="g-root-1.g-1_fr_htenlq8nahoh-fill" data-item-order="-435226" transform="translate(71, 207)"><g id="1.g-1_fr_htenlq8nahoh-fill" stroke="none" fill="#41735b"><g><path d="M 50 90C 72.0914 90 90 72.0914 90 50C 90 27.9086 72.0914 10 50 10C 27.9086 10 10 27.9086 10 50C 10 72.0914 27.9086 90 50 90Z"></path></g></g></g><g id="g-root-2.g-2_fr_8ye4fy8nafbf-fill" data-item-order="-435222" transform="translate(321, 279)"><g id="2.g-2_fr_8ye4fy8nafbf-fill" stroke="none" fill="#346778"><g><path d="M 52 94C 75.196 94 94 75.196 94 52C 94 28.804 75.196 10 52 10C 28.804 10 10 28.804 10 52C 10 75.196 28.804 94 52 94Z"></path></g></g></g><g id="g-root-3.g-3_fr_4ikmbi8nag3p-fill" data-item-order="-435218" transform="translate(405, 279)"><g id="3.g-3_fr_4ikmbi8nag3p-fill" stroke="none" fill="#426397"><g><path d="M 52 94C 75.196 94 94 75.196 94 52C 94 28.804 75.196 10 52 10C 28.804 10 10 28.804 10 52C 10 75.196 28.804 94 52 94Z"></path></g></g></g><g id="g-root-4.g-4_fr_1uo1o1q8nagpb-fill" data-item-order="-435214" transform="translate(489, 279)"><g id="4.g-4_fr_1uo1o1q8nagpb-fill" stroke="none" fill="#5a48a4"><g><path d="M 52 94C 75.196 94 94 75.196 94 52C 94 28.804 75.196 10 52 10C 28.804 10 10 28.804 10 52C 10 75.196 28.804 94 52 94Z"></path></g></g></g><g id="g-root--1.base_fr_1lt14vy8naf41-fill" data-item-order="-435202" transform="translate(99, 393)"><g id="-1.base_fr_1lt14vy8naf41-fill" stroke="none" fill="#6b6b6b"><g><path d="M 22 22L 22 10C 15.3726 10 10 15.3726 10 22L 22 22ZM 610 10L 22 10L 22 22L 610 22L 610 10ZM 622.0003 22C 622.0003 15.3726 616.6277 10 610.0003 10L 610 22L 622.0003 22ZM 622 58L 622 22L 10 22L 10 58L 622 58ZM 622 70L 622 58L 10 58L 10 70L 622 70Z"></path></g></g></g><g id="g-root-incr_4pg3r28mz66d-fill" data-item-order="0" transform="translate(87, 223)"></g><g id="g-root-cloc_hz13pa8ndaf9-fill" data-item-order="0" transform="translate(339, 297)"></g><g id="g-root-pie_1q8utby8mwemc-fill" data-item-order="0" transform="translate(423, 297)"></g><g id="g-root-smar_zlxm9q8nahhn-fill" data-item-order="0" transform="translate(507, 297)"></g><g id="g-root-tx_predicti_13zvym68n67eq-fill" data-item-order="0" transform="translate(111, 405)"><g id="tx_predicti_13zvym68n67eq-fill" stroke="none" fill="#b7b7b7"><g><text style="font: bold 25px &quot;Shantell Sans&quot;, cursive; white-space: pre;" font-weight="bold" font-size="25px" font-family="'Shantell Sans', cursive"><tspan x="16.61" y="44.2" dominant-baseline="ideographic">Predicting Taxi Demand Optimizes NYC Fleet</tspan></text></g></g></g><g id="g-root-tx_demandpr_hssfzy8n69sb-fill" data-item-order="0" transform="translate(81, 489)"><g id="tx_demandpr_hssfzy8n69sb-fill" stroke="none" fill="#43dd93"><g><text style="font: bold 20px &quot;Shantell Sans&quot;, cursive; white-space: pre;" font-weight="bold" font-size="20px" font-family="'Shantell Sans', cursive"><tspan x="39.32" y="35.6" dominant-baseline="ideographic">Demand </tspan><tspan x="32.97" y="59.6" dominant-baseline="ideographic">Predictor</tspan></text></g></g></g><g id="g-root-tx_optimize_24wla8n68zo-fill" data-item-order="0" transform="translate(249, 489)"><g id="tx_optimize_24wla8n68zo-fill" stroke="none" fill="#1ac3fb"><g><text style="font: bold 20px &quot;Shantell Sans&quot;, cursive; white-space: pre;" font-weight="bold" font-size="20px" font-family="'Shantell Sans', cursive"><tspan x="28.77" y="35.6" dominant-baseline="ideographic">Optimized </tspan><tspan x="23.73" y="59.6" dominant-baseline="ideographic">Operations</tspan></text></g></g></g><g id="g-root-tx_datadriv_1lsexa68n677p-fill" data-item-order="0" transform="translate(417, 489)"><g id="tx_datadriv_1lsexa68n677p-fill" stroke="none" fill="#4f91fc"><g><text style="font: bold 20px &quot;Shantell Sans&quot;, cursive; white-space: pre;" font-weight="bold" font-size="20px" font-family="'Shantell Sans', cursive"><tspan x="15.43" y="35.6" dominant-baseline="ideographic">Data-Driven </tspan><tspan x="30.79" y="59.6" dominant-baseline="ideographic">Decisions</tspan></text></g></g></g><g id="g-root-tx_enhanced_18gyewu8n68sm-fill" data-item-order="0" transform="translate(585, 489)"><g id="tx_enhanced_18gyewu8n68sm-fill" stroke="none" fill="#8769fd"><g><text style="font: bold 20px &quot;Shantell Sans&quot;, cursive; white-space: pre;" font-weight="bold" font-size="20px" font-family="'Shantell Sans', cursive"><tspan x="27.16" y="35.6" dominant-baseline="ideographic">Enhanced </tspan><tspan x="41.36" y="59.6" dominant-baseline="ideographic">Service</tspan></text></g></g></g><g id="g-root-tx_machinel_v64dmm8n677r-fill" data-item-order="0" transform="translate(81, 549)"><g id="tx_machinel_v64dmm8n677r-fill" stroke="none" fill="#f4f4f4"><g><text style="font: 15px &quot;Shantell Sans&quot;, cursive; white-space: pre;" font-size="15px" font-family="'Shantell Sans', cursive"><tspan x="16.98" y="28.4" dominant-baseline="ideographic">Machine learning </tspan><tspan x="15.34" y="46.4" dominant-baseline="ideographic">forecasts demand</tspan></text></g></g></g><g id="g-root-tx_improved_hunv9a8n68so-fill" data-item-order="0" transform="translate(249, 549)"><g id="tx_improved_hunv9a8n68so-fill" stroke="none" fill="#f4f4f4"><g><text style="font: 15px &quot;Shantell Sans&quot;, cursive; white-space: pre;" font-size="15px" font-family="'Shantell Sans', cursive"><tspan x="29.03" y="28.4" dominant-baseline="ideographic">Improved taxi </tspan><tspan x="27.12" y="46.4" dominant-baseline="ideographic">fleet efficiency</tspan></text></g></g></g><g id="g-root-tx_informed_4jttz28n677t-fill" data-item-order="0" transform="translate(417, 549)"><g id="tx_informed_4jttz28n677t-fill" stroke="none" fill="#f4f4f4"><g><text style="font: 15px &quot;Shantell Sans&quot;, cursive; white-space: pre;" font-size="15px" font-family="'Shantell Sans', cursive"><tspan x="17.66" y="28.4" dominant-baseline="ideographic">Informed service </tspan><tspan x="35.04" y="46.4" dominant-baseline="ideographic">adjustments</tspan></text></g></g></g><g id="g-root-tx_bettercu_1ltnvge8n69du-fill" data-item-order="0" transform="translate(585, 549)"><g id="tx_bettercu_1ltnvge8n69du-fill" stroke="none" fill="#f4f4f4"><g><text style="font: 15px &quot;Shantell Sans&quot;, cursive; white-space: pre;" font-size="15px" font-family="'Shantell Sans', cursive"><tspan x="21.53" y="28.4" dominant-baseline="ideographic">Better customer </tspan><tspan x="37.81" y="46.4" dominant-baseline="ideographic">satisfaction</tspan></text></g></g></g><g id="g-root-tf_18ntmv28n677n-stroke" data-item-order="-531576" transform="translate(-9, -9)"></g><g id="g-root--1.g-0b_fr_zkoo3i8nafb9-stroke" data-item-order="-435233" transform="translate(137.00100708007812, 75)"><g id="-1.g-0b_fr_zkoo3i8nafb9-stroke" fill="none" stroke-linecap="round" stroke-linejoin="round" stroke-miterlimit="4" stroke="#f4f4f4" stroke-width="2"><g><path d="M 236.833 214L 236.833 10M 10 150.9987L 79.9987 81M 91.9987 69L 150.9987 10M 320 214L 320 10M 404.333 214L 404.333 10"></path></g></g></g><g id="g-root--1.g-0a_fr_qp1num8nag3z-stroke" data-item-order="-435230" transform="translate(201.00100708007812, 63)"><g id="-1.g-0a_fr_qp1num8nag3z-stroke" fill="none" stroke-linecap="round" stroke-linejoin="round" stroke-miterlimit="4" stroke="#2c2c2c" stroke-width="2"><g><path d="M 16 46C 16 26.1178 32.1177 10 52 10L 376 10C 395.8823 10 412 26.1177 412 46L 412 334L 400 334L 400 46C 400 32.7452 389.2548 22 376 22L 52 22C 38.7452 22 28 32.7452 28 46L 28 334L 16 334L 16 46ZM 394 340L 418 340L 418 338C 418 335.7909 416.2091 334 414 334L 398 334C 395.7909 334 394 335.7909 394 338L 394 340ZM 10 340L 34 340L 34 338C 34 335.7909 32.2091 334 30 334L 14 334C 11.7909 334 10 335.7909 10 338L 10 340Z"></path></g></g></g><g id="g-root-1.g-1_fr_htenlq8nahoh-stroke" data-item-order="-435226" transform="translate(71, 207)"><g id="1.g-1_fr_htenlq8nahoh-stroke" fill="none" stroke-linecap="round" stroke-linejoin="round" stroke-miterlimit="4" stroke="#2a2e2c" stroke-width="2"><g><path d="M 50 90C 72.0914 90 90 72.0914 90 50C 90 27.9086 72.0914 10 50 10C 27.9086 10 10 27.9086 10 50C 10 72.0914 27.9086 90 50 90Z"></path></g></g></g><g id="g-root-2.g-2_fr_8ye4fy8nafbf-stroke" data-item-order="-435222" transform="translate(321, 279)"><g id="2.g-2_fr_8ye4fy8nafbf-stroke" fill="none" stroke-linecap="round" stroke-linejoin="round" stroke-miterlimit="4" stroke="#292d2f" stroke-width="2"><g><path d="M 52 94C 75.196 94 94 75.196 94 52C 94 28.804 75.196 10 52 10C 28.804 10 10 28.804 10 52C 10 75.196 28.804 94 52 94Z"></path></g></g></g><g id="g-root-3.g-3_fr_4ikmbi8nag3p-stroke" data-item-order="-435218" transform="translate(405, 279)"><g id="3.g-3_fr_4ikmbi8nag3p-stroke" fill="none" stroke-linecap="round" stroke-linejoin="round" stroke-miterlimit="4" stroke="#2b2d31" stroke-width="2"><g><path d="M 52 94C 75.196 94 94 75.196 94 52C 94 28.804 75.196 10 52 10C 28.804 10 10 28.804 10 52C 10 75.196 28.804 94 52 94Z"></path></g></g></g><g id="g-root-4.g-4_fr_1uo1o1q8nagpb-stroke" data-item-order="-435214" transform="translate(489, 279)"><g id="4.g-4_fr_1uo1o1q8nagpb-stroke" fill="none" stroke-linecap="round" stroke-linejoin="round" stroke-miterlimit="4" stroke="#2d2c32" stroke-width="2"><g><path d="M 52 94C 75.196 94 94 75.196 94 52C 94 28.804 75.196 10 52 10C 28.804 10 10 28.804 10 52C 10 75.196 28.804 94 52 94Z"></path></g></g></g><g id="g-root--1.base_fr_1lt14vy8naf41-stroke" data-item-order="-435202" transform="translate(99, 393)"><g id="-1.base_fr_1lt14vy8naf41-stroke" fill="none" stroke-linecap="round" stroke-linejoin="round" stroke-miterlimit="4" stroke="#2c2c2c" stroke-width="2"><g><path d="M 22 10C 15.3726 10 10 15.3726 10 22M 22 10L 610 10M 610 10C 616.6274 10 622 15.3726 622 22M 10 58L 10 22M 622 58L 622 70L 10 70L 10 58M 622 22L 622 58"></path></g></g></g><g id="g-root-incr_4pg3r28mz66d-stroke" data-item-order="0" transform="translate(87, 223)"><g id="incr_4pg3r28mz66d-stroke" fill="none" stroke-linecap="round" stroke-linejoin="round" stroke-miterlimit="4" stroke="#43dd93" stroke-width="2"><g><path d="M 10 10M 52.542 17.5L 47.104 38.510002C 45.276348 45.56963 38.906372 50.500298 31.614 50.5L 11 50.5M 10 10M 45.321999 21.958L 52.542 17.5L 57 24.720001"></path></g></g></g><g id="g-root-cloc_hz13pa8ndaf9-stroke" data-item-order="0" transform="translate(339, 297)"><g id="cloc_hz13pa8ndaf9-stroke" fill="none" stroke-linecap="round" stroke-linejoin="round" stroke-miterlimit="4" stroke="#1ac3fb" stroke-width="2"><g><path d="M 33 45C 33 51.627419 38.372581 57 45 57C 51.627419 57 57 51.627419 57 45C 57 38.372581 51.627419 33 45 33C 38.372581 33 33 38.372581 33 45ZM 49 45L 45 45L 45 39M 28 43L 13 43C 11.895431 43 11 42.104568 11 41L 11 34.938C 10.995964 34.431396 11.371418 34.001816 11.874 33.938C 15.377197 33.500328 18.006199 30.522432 18.006199 26.992001C 18.006199 23.461567 15.377197 20.483673 11.874001 20.046001C 11.371418 19.982182 10.995964 19.552601 11 19.046L 11 13C 11 11.895431 11.895431 11 13 11L 55 11C 56.104568 11 57 11.895431 57 13L 57 19.062C 57.004036 19.5686 56.628582 19.998182 56.125999 20.062C 54.255531 20.29706 52.558937 21.276634 51.420193 22.779022C 50.281448 24.281414 49.796825 26.179604 50.076 28.044001M 42.5 16C 42.5 16.276142 42.276142 16.5 42 16.5C 41.723858 16.5 41.5 16.276142 41.5 16C 41.5 15.723858 41.723858 15.5 42 15.5C 42.276142 15.5 42.5 15.723858 42.5 16M 42.5 22C 42.5 22.276142 42.276142 22.5 42 22.5C 41.723858 22.5 41.5 22.276142 41.5 22C 41.5 21.723858 41.723858 21.5 42 21.5C 42.276142 21.5 42.5 21.723858 42.5 22M 42.5 28C 42.5 28.276142 42.276142 28.5 42 28.5C 41.723858 28.5 41.5 28.276142 41.5 28C 41.5 27.723858 41.723858 27.5 42 27.5C 42.276142 27.5 42.5 27.723858 42.5 28"></path></g></g></g><g id="g-root-pie_1q8utby8mwemc-stroke" data-item-order="0" transform="translate(423, 297)"><g id="pie_1q8utby8mwemc-stroke" fill="none" stroke-linecap="round" stroke-linejoin="round" stroke-miterlimit="4" stroke="#4f91fc" stroke-width="2"><g><path d="M 11.008 34C 11.008 46.702549 21.30545 57 34.008003 57C 46.710548 57 57.007999 46.702549 57.007999 34C 57.007999 21.297451 46.710548 11 34.008003 11C 21.30545 11 11.008 21.297451 11.008 34ZM 21.007999 34C 21.008001 41.179703 26.828299 47 34.008003 47C 41.187702 47 47.007999 41.179703 47.007999 34C 47.007999 26.820299 41.187702 21 34.008003 21C 26.828299 21 21.008001 26.820299 21.008001 34ZM 27.818001 22.566L 34.926003 35L 46.970001 35M 34.926003 35L 36.827999 46.694"></path></g></g></g><g id="g-root-smar_zlxm9q8nahhn-stroke" data-item-order="0" transform="translate(507, 297)"><g id="smar_zlxm9q8nahhn-stroke" fill="none" stroke-linecap="round" stroke-linejoin="round" stroke-miterlimit="4" stroke="#8769fd" stroke-width="2"><g><path d="M 40.5 19C 40.776142 19 41 19.223858 41 19.5C 41 19.776142 40.776142 20 40.5 20C 40.223858 20 40 19.776142 40 19.5C 40 19.223858 40.223858 19 40.5 19M 49.5 19C 49.776142 19 50 19.223858 50 19.5C 50 19.776142 49.776142 20 49.5 20C 49.223858 20 49 19.776142 49 19.5C 49 19.223858 49.223858 19 49.5 19M 49 26C 49 28.209139 47.209141 30 45 30C 42.790859 30 41 28.209139 41 26ZM 44.866001 11C 41.675541 11.010678 38.622807 12.301193 36.392128 14.582251C 34.161453 16.863308 32.93943 19.944099 33 23.133999C 32.909966 25.366547 33.451351 27.579231 34.562 29.518002L 31 37L 38.482002 33.436001C 42.855595 36.14727 48.464031 35.803398 52.473644 32.578133C 56.483253 29.352871 58.021049 23.948427 56.310055 19.095407C 54.59906 14.242387 50.011803 10.997408 44.866001 11ZM 43 39L 43 57M 11 57L 11 21C 11 18.790861 12.790861 17 15 17L 30 17M 29 25L 11 25M 21.5 43.5C 21.5 45.985283 23.514719 48 26 48C 28.485281 48 30.5 45.985283 30.5 43.5C 30.5 41.014717 28.485281 39 26 39C 23.514719 39 21.5 41.014717 21.5 43.5ZM 35 57C 33.950928 52.885952 30.245701 50.006985 26 50.006985C 21.754299 50.006985 18.049076 52.885952 17 57M 24 21L 29 21"></path></g></g></g><g id="g-root-tx_predicti_13zvym68n67eq-stroke" data-item-order="0" transform="translate(111, 405)"></g><g id="g-root-tx_demandpr_hssfzy8n69sb-stroke" data-item-order="0" transform="translate(81, 489)"></g><g id="g-root-tx_optimize_24wla8n68zo-stroke" data-item-order="0" transform="translate(249, 489)"></g><g id="g-root-tx_datadriv_1lsexa68n677p-stroke" data-item-order="0" transform="translate(417, 489)"></g><g id="g-root-tx_enhanced_18gyewu8n68sm-stroke" data-item-order="0" transform="translate(585, 489)"></g><g id="g-root-tx_machinel_v64dmm8n677r-stroke" data-item-order="0" transform="translate(81, 549)"></g><g id="g-root-tx_improved_hunv9a8n68so-stroke" data-item-order="0" transform="translate(249, 549)"></g><g id="g-root-tx_informed_4jttz28n677t-stroke" data-item-order="0" transform="translate(417, 549)"></g><g id="g-root-tx_bettercu_1ltnvge8n69du-stroke" data-item-order="0" transform="translate(585, 549)"></g></g></g></svg>