<svg xmlns="http://www.w3.org/2000/svg" xmlns:xlink="http://www.w3.org/1999/xlink" contentStyleType="text/css" data-diagram-type="DESCRIPTION" height="443.75px" preserveAspectRatio="none" style="width:2678px;height:443px;background:#FFFFFF;" version="1.1" viewBox="0 0 2678 443" width="2678.125px" zoomAndPan="magnify"><title>Taxi Demand Predictor - Enhanced System Architecture</title><defs><filter height="300%" id="fmwe0v3nsfdq9" width="300%" x="-1" y="-1"><feGaussianBlur result="blurOut" stdDeviation="2.0833"/><feColorMatrix in="blurOut" result="blurOut2" type="matrix" values="0 0 0 0 0 0 0 0 0 0 0 0 0 0 0 0 0 0 .4 0"/><feOffset dx="4.1667" dy="4.1667" in="blurOut2" result="blurOut3"/><feBlend in="SourceGraphic" in2="blurOut3" mode="normal"/></filter></defs><g><rect fill="#FFFFFF" fill-opacity="0.00000" height="57.5846" id="_title" rx="4.1667" ry="4.1667" style="stroke:#CCCCCC;stroke-width:1.0417;" width="687.2131" x="991.2632" y="20.8333"/><text fill="#2196F3" font-family="Verdana" font-size="20.8333" font-weight="bold" lengthAdjust="spacing" textLength="653.8798" x="1007.9299" y="56.838">Taxi Demand Predictor - Enhanced System Architecture</text><!--cluster Data Sources--><g id="cluster_Data Sources"><rect fill="#FFFFFF" fill-opacity="0.00000" filter="url(#fmwe0v3nsfdq9)" height="137.5" rx="4.1667" ry="4.1667" style="stroke:#2196F3;stroke-width:2.0833;" width="413.7083" x="17.7083" y="232.5846"/><text fill="#2196F3" font-family="Verdana" font-size="12.5" font-weight="bold" lengthAdjust="spacing" textLength="93.5547" x="177.7852" y="256.6874">Data Sources</text></g><!--cluster Feature Pipeline--><g id="cluster_Feature Pipeline"><rect fill="#FFFFFF" fill-opacity="0.00000" filter="url(#fmwe0v3nsfdq9)" height="137.5" rx="4.1667" ry="4.1667" style="stroke:#2196F3;stroke-width:2.0833;" width="727.2187" x="460.5833" y="232.5846"/><text fill="#2196F3" font-family="Verdana" font-size="12.5" font-weight="bold" lengthAdjust="spacing" textLength="116.1377" x="766.1239" y="256.6874">Feature Pipeline</text></g><!--cluster Training Pipeline--><g id="cluster_Training Pipeline"><rect fill="#FFFFFF" fill-opacity="0.00000" filter="url(#fmwe0v3nsfdq9)" height="137.5" rx="4.1667" ry="4.1667" style="stroke:#2196F3;stroke-width:2.0833;" width="439.7292" x="1216.9688" y="232.5846"/><text fill="#2196F3" font-family="Verdana" font-size="12.5" font-weight="bold" lengthAdjust="spacing" textLength="119.6106" x="1377.028" y="256.6874">Training Pipeline</text></g><!--cluster Prediction Pipeline--><g id="cluster_Prediction Pipeline"><rect fill="#FFFFFF" fill-opacity="0.00000" filter="url(#fmwe0v3nsfdq9)" height="137.5" rx="4.1667" ry="4.1667" style="stroke:#2196F3;stroke-width:2.0833;" width="445.4896" x="1685.8646" y="97.168"/><text fill="#2196F3" font-family="Verdana" font-size="12.5" font-weight="bold" lengthAdjust="spacing" textLength="133.3618" x="1841.9285" y="121.2708">Prediction Pipeline</text></g><!--cluster Monitoring & Alerts--><g id="cluster_Monitoring &amp; Alerts"><rect fill="#FFFFFF" fill-opacity="0.00000" filter="url(#fmwe0v3nsfdq9)" height="166.6667" rx="4.1667" ry="4.1667" style="stroke:#2196F3;stroke-width:2.0833;" width="449.75" x="2160.5208" y="259.668"/><text fill="#2196F3" font-family="Verdana" font-size="12.5" font-weight="bold" lengthAdjust="spacing" textLength="138.6902" x="2316.0507" y="283.7708">Monitoring &amp; Alerts</text></g><!--cluster Frontend--><g id="cluster_Frontend"><rect fill="#FFFFFF" fill-opacity="0.00000" filter="url(#fmwe0v3nsfdq9)" height="137.5" rx="4.1667" ry="4.1667" style="stroke:#2196F3;stroke-width:2.0833;" width="225.1875" x="2436.2188" y="97.168"/><text fill="#2196F3" font-family="Verdana" font-size="12.5" font-weight="bold" lengthAdjust="spacing" textLength="64.4897" x="2516.5676" y="121.2708">Frontend</text></g><!--entity taxi_api--><g id="elem_taxi_api"><rect fill="#FFFFFF" fill-opacity="0.00000" filter="url(#fmwe0v3nsfdq9)" height="66.6341" rx="4.1667" ry="4.1667" style="stroke:#2196F3;stroke-width:1.0417;" width="142.1021" x="34.375" y="286.7721"/><rect fill="#FFFFFF" fill-opacity="0.00000" height="10.4167" style="stroke:#2196F3;stroke-width:1.0417;" width="15.625" x="155.6437" y="291.9805"/><rect fill="#FFFFFF" fill-opacity="0.00000" height="2.0833" style="stroke:#2196F3;stroke-width:1.0417;" width="4.1667" x="153.5604" y="294.0638"/><rect fill="#FFFFFF" fill-opacity="0.00000" height="2.0833" style="stroke:#2196F3;stroke-width:1.0417;" width="4.1667" x="153.5604" y="298.2305"/><text fill="#2196F3" font-family="Verdana" font-size="12.5" lengthAdjust="spacing" textLength="79.6021" x="60.4167" y="329.6249">NYC Taxi API</text></g><!--entity raw_storage--><g id="elem_raw_storage"><rect fill="#FFFFFF" fill-opacity="0.00000" filter="url(#fmwe0v3nsfdq9)" height="66.6341" rx="4.1667" ry="4.1667" style="stroke:#2196F3;stroke-width:1.0417;" width="175.769" x="238.9792" y="286.7721"/><rect fill="#FFFFFF" fill-opacity="0.00000" height="10.4167" style="stroke:#2196F3;stroke-width:1.0417;" width="15.625" x="393.9149" y="291.9805"/><rect fill="#FFFFFF" fill-opacity="0.00000" height="2.0833" style="stroke:#2196F3;stroke-width:1.0417;" width="4.1667" x="391.8315" y="294.0638"/><rect fill="#FFFFFF" fill-opacity="0.00000" height="2.0833" style="stroke:#2196F3;stroke-width:1.0417;" width="4.1667" x="391.8315" y="298.2305"/><text fill="#2196F3" font-family="Verdana" font-size="12.5" lengthAdjust="spacing" textLength="113.269" x="265.0208" y="329.6249">Raw Data Storage</text></g><!--entity validation--><g id="elem_validation"><rect fill="#FFFFFF" fill-opacity="0.00000" filter="url(#fmwe0v3nsfdq9)" height="66.6341" rx="4.1667" ry="4.1667" style="stroke:#2196F3;stroke-width:1.0417;" width="159.0149" x="477.25" y="286.7721"/><rect fill="#FFFFFF" fill-opacity="0.00000" height="10.4167" style="stroke:#2196F3;stroke-width:1.0417;" width="15.625" x="615.4316" y="291.9805"/><rect fill="#FFFFFF" fill-opacity="0.00000" height="2.0833" style="stroke:#2196F3;stroke-width:1.0417;" width="4.1667" x="613.3482" y="294.0638"/><rect fill="#FFFFFF" fill-opacity="0.00000" height="2.0833" style="stroke:#2196F3;stroke-width:1.0417;" width="4.1667" x="613.3482" y="298.2305"/><text fill="#2196F3" font-family="Verdana" font-size="12.5" lengthAdjust="spacing" textLength="96.5149" x="503.2917" y="329.6249">Data Validation</text></g><!--entity feature_eng--><g id="elem_feature_eng"><rect fill="#FFFFFF" fill-opacity="0.00000" filter="url(#fmwe0v3nsfdq9)" height="66.6341" rx="4.1667" ry="4.1667" style="stroke:#2196F3;stroke-width:1.0417;" width="189.6667" x="698.7604" y="286.7721"/><rect fill="#FFFFFF" fill-opacity="0.00000" height="10.4167" style="stroke:#2196F3;stroke-width:1.0417;" width="15.625" x="867.5938" y="291.9805"/><rect fill="#FFFFFF" fill-opacity="0.00000" height="2.0833" style="stroke:#2196F3;stroke-width:1.0417;" width="4.1667" x="865.5105" y="294.0638"/><rect fill="#FFFFFF" fill-opacity="0.00000" height="2.0833" style="stroke:#2196F3;stroke-width:1.0417;" width="4.1667" x="865.5105" y="298.2305"/><text fill="#2196F3" font-family="Verdana" font-size="12.5" lengthAdjust="spacing" textLength="127.1667" x="724.8021" y="329.6249">Feature Engineering</text></g><!--entity feature_store--><g id="elem_feature_store"><rect fill="#FFFFFF" fill-opacity="0.00000" filter="url(#fmwe0v3nsfdq9)" height="66.6341" rx="4.1667" ry="4.1667" style="stroke:#2196F3;stroke-width:1.0417;" width="220.2087" x="950.9271" y="286.7721"/><rect fill="#FFFFFF" fill-opacity="0.00000" height="10.4167" style="stroke:#2196F3;stroke-width:1.0417;" width="15.625" x="1150.3025" y="291.9805"/><rect fill="#FFFFFF" fill-opacity="0.00000" height="2.0833" style="stroke:#2196F3;stroke-width:1.0417;" width="4.1667" x="1148.2192" y="294.0638"/><rect fill="#FFFFFF" fill-opacity="0.00000" height="2.0833" style="stroke:#2196F3;stroke-width:1.0417;" width="4.1667" x="1148.2192" y="298.2305"/><text fill="#2196F3" font-family="Verdana" font-size="12.5" lengthAdjust="spacing" textLength="157.7087" x="976.9688" y="329.6249">Hopsworks Feature Store</text></g><!--entity model_dev--><g id="elem_model_dev"><rect fill="#FFFFFF" fill-opacity="0.00000" filter="url(#fmwe0v3nsfdq9)" height="66.6341" rx="4.1667" ry="4.1667" style="stroke:#2196F3;stroke-width:1.0417;" width="188.1531" x="1233.6354" y="286.7721"/><rect fill="#FFFFFF" fill-opacity="0.00000" height="10.4167" style="stroke:#2196F3;stroke-width:1.0417;" width="15.625" x="1400.9552" y="291.9805"/><rect fill="#FFFFFF" fill-opacity="0.00000" height="2.0833" style="stroke:#2196F3;stroke-width:1.0417;" width="4.1667" x="1398.8718" y="294.0638"/><rect fill="#FFFFFF" fill-opacity="0.00000" height="2.0833" style="stroke:#2196F3;stroke-width:1.0417;" width="4.1667" x="1398.8718" y="298.2305"/><text fill="#2196F3" font-family="Verdana" font-size="12.5" lengthAdjust="spacing" textLength="125.6531" x="1259.6771" y="329.6249">Model Development</text></g><!--entity model_registry--><g id="elem_model_registry"><rect fill="#FFFFFF" fill-opacity="0.00000" filter="url(#fmwe0v3nsfdq9)" height="66.6341" rx="4.1667" ry="4.1667" style="stroke:#2196F3;stroke-width:1.0417;" width="155.7373" x="1484.2917" y="286.7721"/><rect fill="#FFFFFF" fill-opacity="0.00000" height="10.4167" style="stroke:#2196F3;stroke-width:1.0417;" width="15.625" x="1619.1956" y="291.9805"/><rect fill="#FFFFFF" fill-opacity="0.00000" height="2.0833" style="stroke:#2196F3;stroke-width:1.0417;" width="4.1667" x="1617.1123" y="294.0638"/><rect fill="#FFFFFF" fill-opacity="0.00000" height="2.0833" style="stroke:#2196F3;stroke-width:1.0417;" width="4.1667" x="1617.1123" y="298.2305"/><text fill="#2196F3" font-family="Verdana" font-size="12.5" lengthAdjust="spacing" textLength="93.2373" x="1510.3333" y="329.6249">Model Registry</text></g><!--entity inference--><g id="elem_inference"><rect fill="#FFFFFF" fill-opacity="0.00000" filter="url(#fmwe0v3nsfdq9)" height="66.6341" rx="4.1667" ry="4.1667" style="stroke:#2196F3;stroke-width:1.0417;" width="171.6858" x="1702.5313" y="151.3555"/><rect fill="#FFFFFF" fill-opacity="0.00000" height="10.4167" style="stroke:#2196F3;stroke-width:1.0417;" width="15.625" x="1853.3837" y="156.5638"/><rect fill="#FFFFFF" fill-opacity="0.00000" height="2.0833" style="stroke:#2196F3;stroke-width:1.0417;" width="4.1667" x="1851.3004" y="158.6471"/><rect fill="#FFFFFF" fill-opacity="0.00000" height="2.0833" style="stroke:#2196F3;stroke-width:1.0417;" width="4.1667" x="1851.3004" y="162.8138"/><text fill="#2196F3" font-family="Verdana" font-size="12.5" lengthAdjust="spacing" textLength="109.1858" x="1728.5729" y="194.2083">Inference Service</text></g><!--entity pred_storage--><g id="elem_pred_storage"><rect fill="#FFFFFF" fill-opacity="0.00000" filter="url(#fmwe0v3nsfdq9)" height="66.6341" rx="4.1667" ry="4.1667" style="stroke:#2196F3;stroke-width:1.0417;" width="177.9724" x="1936.7083" y="151.3555"/><rect fill="#FFFFFF" fill-opacity="0.00000" height="10.4167" style="stroke:#2196F3;stroke-width:1.0417;" width="15.625" x="2093.8474" y="156.5638"/><rect fill="#FFFFFF" fill-opacity="0.00000" height="2.0833" style="stroke:#2196F3;stroke-width:1.0417;" width="4.1667" x="2091.7641" y="158.6471"/><rect fill="#FFFFFF" fill-opacity="0.00000" height="2.0833" style="stroke:#2196F3;stroke-width:1.0417;" width="4.1667" x="2091.7641" y="162.8138"/><text fill="#2196F3" font-family="Verdana" font-size="12.5" lengthAdjust="spacing" textLength="115.4724" x="1962.75" y="194.2083">Prediction Storage</text></g><!--entity monitoring--><g id="elem_monitoring"><rect fill="#FFFFFF" fill-opacity="0.00000" filter="url(#fmwe0v3nsfdq9)" height="66.6341" rx="4.1667" ry="4.1667" style="stroke:#2196F3;stroke-width:1.0417;" width="213.1958" x="2177.1875" y="313.8555"/><rect fill="#FFFFFF" fill-opacity="0.00000" height="10.4167" style="stroke:#2196F3;stroke-width:1.0417;" width="15.625" x="2369.55" y="319.0638"/><rect fill="#FFFFFF" fill-opacity="0.00000" height="2.0833" style="stroke:#2196F3;stroke-width:1.0417;" width="4.1667" x="2367.4666" y="321.1471"/><rect fill="#FFFFFF" fill-opacity="0.00000" height="2.0833" style="stroke:#2196F3;stroke-width:1.0417;" width="4.1667" x="2367.4666" y="325.3138"/><text fill="#2196F3" font-family="Verdana" font-size="12.5" lengthAdjust="spacing" textLength="150.6958" x="2203.2292" y="356.7083">Performance Monitoring</text></g><!--entity alert_api--><g id="elem_alert_api"><ellipse cx="2548.8125" cy="361.7513" fill="#FFFFFF" fill-opacity="0.00000" filter="url(#fmwe0v3nsfdq9)" rx="8.3333" ry="8.3333" style="stroke:#E51C23;stroke-width:1.0417;"/><text fill="#222222" font-family="Verdana" font-size="12.5" lengthAdjust="spacing" textLength="53.5034" x="2522.0608" y="401.4791">Alert API</text></g><!--entity dashboard--><g id="elem_dashboard"><rect fill="#FFFFFF" fill-opacity="0.00000" filter="url(#fmwe0v3nsfdq9)" height="66.6341" rx="4.1667" ry="4.1667" style="stroke:#2196F3;stroke-width:1.0417;" width="191.8579" x="2452.8854" y="151.3555"/><rect fill="#FFFFFF" fill-opacity="0.00000" height="10.4167" style="stroke:#2196F3;stroke-width:1.0417;" width="15.625" x="2623.91" y="156.5638"/><rect fill="#FFFFFF" fill-opacity="0.00000" height="2.0833" style="stroke:#2196F3;stroke-width:1.0417;" width="4.1667" x="2621.8267" y="158.6471"/><rect fill="#FFFFFF" fill-opacity="0.00000" height="2.0833" style="stroke:#2196F3;stroke-width:1.0417;" width="4.1667" x="2621.8267" y="162.8138"/><text fill="#2196F3" font-family="Verdana" font-size="12.5" lengthAdjust="spacing" textLength="129.3579" x="2478.9271" y="194.2083">Streamlit Dashboard</text></g><!--link taxi_api to raw_storage--><g id="link_taxi_api_raw_storage"><path d="M176.7083,320.0846 C196.4271,320.0846 211.8229,320.0846 232.3854,320.0846 " fill="#FFFFFF" fill-opacity="0.00000" id="taxi_api-to-raw_storage" style="stroke:#2196F3;stroke-width:3.125;"/><polygon fill="#2196F3" points="238.6354,320.0846,229.2604,315.918,233.4271,320.0846,229.2604,324.2513,238.6354,320.0846" style="stroke:#2196F3;stroke-width:3.125;"/><text fill="#222222" font-family="Verdana" font-size="12.5" lengthAdjust="spacing" textLength="97.6257" x="99.3438" y="292.1041">Writes trip data</text><text fill="#222222" font-family="Verdana" font-size="12.5" lengthAdjust="spacing" textLength="93.335" x="101.4891" y="306.6549">(batch/stream)</text></g><!--link raw_storage to validation--><g id="link_raw_storage_validation"><path d="M415.0833,320.0846 C435.4688,320.0846 450.7917,320.0846 470.7917,320.0846 " fill="#FFFFFF" fill-opacity="0.00000" id="raw_storage-to-validation" style="stroke:#2196F3;stroke-width:3.125;"/><polygon fill="#2196F3" points="477.0417,320.0846,467.6667,315.918,471.8333,320.0846,467.6667,324.2513,477.0417,320.0846" style="stroke:#2196F3;stroke-width:3.125;"/><text fill="#222222" font-family="Verdana" font-size="12.5" lengthAdjust="spacing" textLength="58.6975" x="376.2708" y="306.6874">Raw data</text></g><!--link validation to feature_eng--><g id="link_validation_feature_eng"><path d="M636.6042,320.0846 C656.4792,320.0846 671.7292,320.0846 692.2604,320.0846 " fill="#FFFFFF" fill-opacity="0.00000" id="validation-to-feature_eng" style="stroke:#2196F3;stroke-width:3.125;"/><polygon fill="#2196F3" points="698.5104,320.0846,689.1354,315.918,693.3021,320.0846,689.1354,324.2513,698.5104,320.0846" style="stroke:#2196F3;stroke-width:3.125;"/><text fill="#222222" font-family="Verdana" font-size="12.5" lengthAdjust="spacing" textLength="91.4063" x="565.4792" y="343.1458">Validated data</text></g><!--link feature_eng to feature_store--><g id="link_feature_eng_feature_store"><path d="M888.6354,320.0846 C908.75,320.0846 923.8958,320.0846 944.5313,320.0846 " fill="#FFFFFF" fill-opacity="0.00000" id="feature_eng-to-feature_store" style="stroke:#2196F3;stroke-width:3.125;"/><polygon fill="#2196F3" points="950.7813,320.0846,941.4063,315.918,945.5729,320.0846,941.4063,324.2513,950.7813,320.0846" style="stroke:#2196F3;stroke-width:3.125;"/><text fill="#222222" font-family="Verdana" font-size="12.5" lengthAdjust="spacing" textLength="119.4275" x="780.6723" y="292.1041">Processed features</text><text fill="#222222" font-family="Verdana" font-size="12.5" lengthAdjust="spacing" textLength="137.1887" x="771.7917" y="306.6549">(time-series encoded)</text></g><!--link feature_store to model_dev--><g id="link_feature_store_model_dev"><path d="M1171.4271,320.0846 C1191.9167,320.0846 1206.9063,320.0846 1226.875,320.0846 " fill="#FFFFFF" fill-opacity="0.00000" id="feature_store-to-model_dev" style="stroke:#2196F3;stroke-width:3.125;"/><polygon fill="#2196F3" points="1233.125,320.0846,1223.75,315.918,1227.9167,320.0846,1223.75,324.2513,1233.125,320.0846" style="stroke:#2196F3;stroke-width:3.125;"/><text fill="#222222" font-family="Verdana" font-size="12.5" lengthAdjust="spacing" textLength="107.0496" x="1084.5625" y="343.1458">Training features</text></g><!--link model_dev to model_registry--><g id="link_model_dev_model_registry"><path d="M1422.0625,320.0846 C1442.5417,320.0846 1457.75,320.0846 1477.5417,320.0846 " fill="#FFFFFF" fill-opacity="0.00000" id="model_dev-to-model_registry" style="stroke:#2196F3;stroke-width:3.125;"/><polygon fill="#2196F3" points="1483.7917,320.0846,1474.4167,315.918,1478.5833,320.0846,1474.4167,324.2513,1483.7917,320.0846" style="stroke:#2196F3;stroke-width:3.125;"/><text fill="#222222" font-family="Verdana" font-size="12.5" lengthAdjust="spacing" textLength="93.0237" x="1348.7604" y="292.1041">Model artifacts</text><text fill="#222222" font-family="Verdana" font-size="12.5" lengthAdjust="spacing" textLength="71.1609" x="1359.6918" y="306.6549">(versioned)</text></g><!--link model_registry to inference--><g id="link_model_registry_inference"><path d="M1640.4896,300.3034 C1695.8958,300.3034 1760.3646,300.3034 1760.3646,300.3034 C1760.3646,300.3034 1760.3646,258.8034 1760.3646,224.6784 " fill="#FFFFFF" fill-opacity="0.00000" id="model_registry-to-inference" style="stroke:#2196F3;stroke-width:3.125;"/><polygon fill="#2196F3" points="1760.3646,218.4284,1756.1979,227.8034,1760.3646,223.6367,1764.5313,227.8034,1760.3646,218.4284" style="stroke:#2196F3;stroke-width:3.125;"/><text fill="#222222" font-family="Verdana" font-size="12.5" lengthAdjust="spacing" textLength="116.272" x="1752.8229" y="323.3645">Model deployment</text></g><!--link feature_store to inference--><g id="link_feature_store_inference"><path d="M1061.4063,286.2617 C1061.4063,246.1576 1061.4063,184.668 1061.4063,184.668 C1061.4063,184.668 1503.3125,184.668 1695.875,184.668 " fill="#FFFFFF" fill-opacity="0.00000" id="feature_store-to-inference" style="stroke:#2196F3;stroke-width:3.125;"/><polygon fill="#2196F3" points="1702.125,184.668,1692.75,180.5013,1696.9167,184.668,1692.75,188.8346,1702.125,184.668" style="stroke:#2196F3;stroke-width:3.125;"/><text fill="#222222" font-family="Verdana" font-size="12.5" lengthAdjust="spacing" textLength="94.519" x="1225.7604" y="207.7291">Latest features</text></g><!--link inference to pred_storage--><g id="link_inference_pred_storage"><path d="M1874.7188,184.668 C1894.7396,184.668 1909.8229,184.668 1929.9688,184.668 " fill="#FFFFFF" fill-opacity="0.00000" id="inference-to-pred_storage" style="stroke:#2196F3;stroke-width:3.125;"/><polygon fill="#2196F3" points="1936.2188,184.668,1926.8438,180.5013,1931.0104,184.668,1926.8438,188.8346,1936.2188,184.668" style="stroke:#2196F3;stroke-width:3.125;"/><text fill="#222222" font-family="Verdana" font-size="12.5" lengthAdjust="spacing" textLength="69.104" x="1817.7745" y="156.6874">Predictions</text><text fill="#222222" font-family="Verdana" font-size="12.5" lengthAdjust="spacing" textLength="85.3821" x="1809.6354" y="171.2382">(time-binned)</text></g><!--link inference to monitoring--><g id="link_inference_monitoring"><path d="M1817.6563,218.4701 C1817.6563,262.418 1817.6563,333.6263 1817.6563,333.6263 C1817.6563,333.6263 2032.9792,333.6263 2170.5938,333.6263 " fill="#FFFFFF" fill-opacity="0.00000" id="inference-to-monitoring" style="stroke:#2196F3;stroke-width:3.125;"/><polygon fill="#2196F3" points="2176.8438,333.6263,2167.4688,329.4596,2171.6354,333.6263,2167.4688,337.793,2176.8438,333.6263" style="stroke:#2196F3;stroke-width:3.125;"/><text fill="#222222" font-family="Verdana" font-size="12.5" lengthAdjust="spacing" textLength="88.269" x="1951.125" y="356.6874">Model metrics</text></g><!--link pred_storage to monitoring--><g id="link_pred_storage_monitoring"><path d="M2025.9896,218.3346 C2025.9896,259.4909 2025.9896,323.7409 2025.9896,323.7409 C2025.9896,323.7409 2099.6146,323.7409 2170.4479,323.7409 " fill="#FFFFFF" fill-opacity="0.00000" id="pred_storage-to-monitoring" style="stroke:#2196F3;stroke-width:3.125;"/><polygon fill="#2196F3" points="2176.6979,323.7409,2167.3229,319.5742,2171.4896,323.7409,2167.3229,327.9076,2176.6979,323.7409" style="stroke:#2196F3;stroke-width:3.125;"/><text fill="#222222" font-family="Verdana" font-size="12.5" lengthAdjust="spacing" textLength="92.1326" x="1945.5104" y="310.3437">Prediction logs</text></g><!--link monitoring to alert_api--><g id="link_monitoring_alert_api"><path d="M2390.8125,358.2721 C2449.7188,358.2721 2509.3438,358.2721 2533.2604,358.2721 " fill="#FFFFFF" fill-opacity="0.00000" id="monitoring-to-alert_api" style="stroke:#2196F3;stroke-width:3.125;"/><polygon fill="#2196F3" points="2539.5104,358.2721,2530.1354,354.1055,2534.3021,358.2721,2530.1354,362.4388,2539.5104,358.2721" style="stroke:#2196F3;stroke-width:3.125;"/><text fill="#222222" font-family="Verdana" font-size="12.5" lengthAdjust="spacing" textLength="101.2268" x="2352.6667" y="381.3333">Threshold alerts</text><text fill="#222222" font-family="Verdana" font-size="12.5" lengthAdjust="spacing" textLength="81.8237" x="2362.3682" y="395.884">(Slack/Email)</text></g><!--link pred_storage to dashboard--><g id="link_pred_storage_dashboard"><path d="M2115.0313,184.668 C2208.9896,184.668 2350.0833,184.668 2446.5104,184.668 " fill="#FFFFFF" fill-opacity="0.00000" id="pred_storage-to-dashboard" style="stroke:#2196F3;stroke-width:3.125;"/><polygon fill="#2196F3" points="2452.7604,184.668,2443.3854,180.5013,2447.5521,184.668,2443.3854,188.8346,2452.7604,184.668" style="stroke:#2196F3;stroke-width:3.125;"/><text fill="#222222" font-family="Verdana" font-size="12.5" lengthAdjust="spacing" textLength="105.4443" x="2167.2292" y="207.7291">Read predictions</text><text fill="#222222" font-family="Verdana" font-size="12.5" lengthAdjust="spacing" textLength="87.8296" x="2176.0365" y="222.2799">(visualization)</text></g><!--link monitoring to dashboard--><g id="link_monitoring_dashboard"><path d="M2390.875,336.0638 C2436.375,336.0638 2479.1146,336.0638 2479.1146,336.0638 C2479.1146,336.0638 2479.1146,269.1159 2479.1146,224.5221 " fill="#FFFFFF" fill-opacity="0.00000" id="monitoring-to-dashboard" style="stroke:#2196F3;stroke-width:3.125;"/><polygon fill="#2196F3" points="2479.1146,218.2721,2474.9479,227.6471,2479.1146,223.4805,2483.2813,227.6471,2479.1146,218.2721" style="stroke:#2196F3;stroke-width:3.125;"/><text fill="#222222" font-family="Verdana" font-size="12.5" lengthAdjust="spacing" textLength="130.6152" x="2490.5729" y="307.8853">Performance metrics</text></g><!--link model_registry to monitoring--><g id="link_model_registry_monitoring"><path d="M1640.4167,343.5117 C1770.2188,343.5117 2024,343.5117 2170.6146,343.5117 " fill="#FFFFFF" fill-opacity="0.00000" id="model_registry-to-monitoring" style="stroke:#2196F3;stroke-width:3.125;"/><polygon fill="#2196F3" points="2176.8646,343.5117,2167.4896,339.3451,2171.6563,343.5117,2167.4896,347.6784,2176.8646,343.5117" style="stroke:#2196F3;stroke-width:3.125;"/><text fill="#222222" font-family="Verdana" font-size="12.5" lengthAdjust="spacing" textLength="142.4011" x="1755.5104" y="366.5728">Model version tracking</text></g><!--link feature_store to monitoring--><g id="link_feature_store_monitoring"><path d="M1061.4063,353.6367 C1061.4063,361.1471 1061.4063,366.9388 1061.4063,366.9388 C1061.4063,366.9388 1872.8229,366.9388 2170.6563,366.9388 " fill="#FFFFFF" fill-opacity="0.00000" id="feature_store-to-monitoring" style="stroke:#2196F3;stroke-width:3.125;"/><polygon fill="#2196F3" points="2176.9063,366.9388,2167.5313,362.7721,2171.6979,366.9388,2167.5313,371.1055,2176.9063,366.9388" style="stroke:#2196F3;stroke-width:3.125;"/><text fill="#222222" font-family="Verdana" font-size="12.5" lengthAdjust="spacing" textLength="122.6746" x="1479.1771" y="389.9999">Data drift detection</text></g><!--SRC=[VPNVR-Cs3CVV_LTm6N3RFGG7x7701dYDUsSWJGpRj-6m7GhLOcoXjcJ8IhfisFy-Il8FfKal3qKbaJI_7rBKTwR13g5Z1hLWQtKqhP0OHJ_0B-u7HVbbcy0x-BZT_nPleKZACjrzBCRZQ7WMicUQTV34gkTQgwFaTwfL6hw_Tx_0eb9ThoHAKvXpYt3isf-2K_jTS-uHb3QD2Wvw2ingz4uQAyDatMBKui60KQ15tHZWmfu89QF824E69VjRm0Ox9Zba6hce32MrXaGsJ5R8eJWF1Zk8TTK8Gxv77ShUn6KCnVvpVfVCMiT4OBLXXa6XZhh2OGN_Ha2_FtTVxln7uopz2cm0Guj7rWj_dBCNy7wK1qLn9fgzF0v-xQmc5rYlVmqFuMTO_Q4fJOggHG-S0lqbVtnYfce-34OZwzwlel-2_E-JkFoS9v2bMR9DTycLXdjaLZ9aeaUBVj8n5scK-Jjh1NsEoAvingTv-Tfw2fZ8ci9HDydQUHpy_YFAsfFufFhXHUdd0IONYyG3cOojRe_4_GbHM3HB5fQCHMk9h9njS6PDWyzRsr4ErN_n24r25vU4TSgqeaeFv3GU3GJVY0xN0-caeg2i54V-gWPb7gSxkYnl5w7KJ4W2zQqgF53abZhvXAtgEzfoL3kx-yZnv9bwennhGTrm_hfOw75hONcfpkgTOrcjSqgJLCzeiLayfjZMpIV0j147LXdBvuHwe29SKSdoP9FUbUb-zpQNySBQ6dw3J2eFg0azDH3gawZGaH7JhYSJX0flNa_R5rSlK3dhibBdS8jAZdshpguKRn2zSDfIkmtc5S_5mjg7sVY6cvAUE-r9o6kM3_jTMkvpssFl8DucUNazh1wK51JPbfHiMjHckC4oGtrGkhEZ4HQFiTMcvPWvFHLKP0hjejbvv-oONSq3xuRA9T32iaCQQDK8vGB3jKTGobRLSsFE9jPZJiBrSaEy6zLolsrP5Yrn-P1qJBIl9sQ-tvN9RdCzARKYoPBVe5QuqTiAGwDzQ9uKqzoXuDFgjgpvs4qlPDoPB0K_YU58S-eVDyNUtzHv4I8itWmqr1PlDgczSVI0vyasjlyMdz9iRfORVN-hMEELfZU8sDZsY6uDaz3FFI5S2tggEHh_Gg_-1m00]--></g></svg>